PathFileType	4	(X/Y/Z)	S1_rest_fast_left.trc
DataRate	CameraRate	NumFrames	NumMarkers	Units	OrigDataRate	OrigDataStartFrame	OrigNumFrames
250.00	250.00	8	18	mm	250.00	5951	23803
Frame#	Time	c7	r_should	l_should	clavicle	r_upa	r_elb_l	r_elb_m	r_low	r_wri_l	r_wri_m	r_met	l_upa	l_elb_l	l_elb_m	l_low	l_wri_l	l_wri_m	l_met
	X1	Y1	Z1	X2	Y2	Z2	X3	Y3	Z3	X4	Y4	Z4	X5	Y5	Z5	X6	Y6	Z6	X7	Y7	Z7	X8	Y8	Z8	X9	Y9	Z9	X10	Y10	Z10	X11	Y11	Z11	X12	Y12	Z12	X13	Y13	Z13	X14	Y14	Z14	X15	Y15	Z15	X16	Y16	Z16	X17	Y17	Z17	X18	Y18	Z18
5951	23.80000	369.01361	1415.75574	103.87422	454.46790	1345.31995	277.33392	393.22787	1369.76794	-88.71098	512.84955	1306.03003	74.03962	450.67651	1145.13184	338.29196	474.07104	1047.28796	347.87488	401.81619	1019.01660	283.03171	467.22913	913.73492	358.25308	566.23749	855.89471	315.43533	505.89133	821.15631	334.85336	622.63312	781.28748	324.85550	428.11380	1155.81384	-140.49326	442.74149	1106.88086	-158.27730	450.34271	1053.02258	-64.89850	567.40973	1097.37634	-126.96638	615.00159	1191.25916	-139.28264	643.88867	1151.04871	-86.95443	682.80023	1210.48328	-162.75615
5952	23.80400	368.88016	1415.74976	103.94682	453.95892	1345.22693	277.56720	393.38498	1369.78711	-88.62019	512.80792	1306.06335	74.35987	450.14804	1144.99438	338.41333	473.62769	1047.18140	347.94818	401.55017	1018.87585	282.95804	466.95364	913.62036	358.20801	566.11786	855.95276	315.53940	505.76495	821.12018	334.81418	622.58221	781.41345	325.00601	426.97458	1156.13452	-141.09775	441.60223	1106.51587	-158.27112	448.66443	1052.55298	-65.01002	566.37408	1095.00183	-127.49298	618.97375	1187.67163	-139.14511	643.72394	1147.32422	-87.74135	682.83838	1207.24744	-163.15544
5953	23.80800	368.74234	1415.75623	104.01726	453.44684	1345.13330	277.79431	393.55991	1369.81592	-88.53165	512.76410	1306.10168	74.66966	449.60556	1144.87000	338.55643	473.17126	1047.07764	348.04675	401.26849	1018.73004	282.87979	466.66769	913.51276	358.17133	565.98163	856.01282	315.65451	505.62482	821.07996	334.77271	622.51575	781.54034	325.15204	425.90402	1156.09924	-141.24200	440.44888	1106.11475	-158.24443	446.80579	1052.25549	-65.22987	565.33594	1092.59290	-128.03702	624.11652	1183.82007	-138.02681	643.69177	1143.74084	-88.66898	nan	nan	nan
5954	23.81200	368.60297	1415.75598	104.08418	452.93225	1345.03662	278.02347	393.74408	1369.85303	-88.43745	512.72406	1306.13916	74.97478	449.05753	1144.74695	338.70129	472.71628	1047.00159	348.18024	400.95383	1018.58673	282.81125	466.35593	913.40533	358.13736	565.82977	856.06885	315.77057	505.47952	821.03638	334.73056	622.43781	781.66888	325.30392	424.84689	1155.97266	-141.26262	439.30002	1105.70386	-158.17827	444.50146	1052.02271	-65.70391	564.27454	1090.14050	-128.59549	618.05273	1181.96143	-141.70483	643.92670	1140.34167	-89.86795	nan	nan	nan
5955	23.81600	368.46472	1415.74695	104.14528	452.41846	1344.93567	278.24994	393.94385	1369.88843	-88.34557	512.69305	1306.17859	75.28418	448.52136	1144.62158	338.82922	472.25449	1046.93848	348.32950	400.63031	1018.44763	282.73782	466.02530	913.28290	358.09964	565.66913	856.12201	315.88861	505.31894	820.99438	334.69138	622.36066	781.79572	325.45071	423.79599	1155.82544	-141.23758	438.19150	1105.32446	-158.10173	442.85590	1051.67017	-65.90027	563.20209	1087.66187	-129.14413	616.93237	1178.92261	-143.23848	643.93201	1136.58264	-90.79340	nan	nan	nan
5956	23.82000	368.32254	1415.73743	104.20824	451.90018	1344.83093	278.47659	394.15973	1369.91907	-88.25734	512.65839	1306.21338	75.60566	447.98172	1144.49048	338.95557	471.73492	1046.78052	348.40417	400.31598	1018.30432	282.66742	465.68655	913.15332	358.06219	565.49518	856.17456	316.00323	505.14508	820.95135	334.66095	622.27954	781.92230	325.60022	422.77402	1155.68286	-141.18735	437.08691	1104.92200	-158.01883	441.37683	1051.34595	-65.99499	562.11951	1085.15881	-129.71851	617.08661	1175.50647	-144.19440	643.93097	1132.62048	-91.68923	nan	nan	nan
5957	23.82400	368.17758	1415.73206	104.28092	451.38889	1344.72949	278.70279	394.38754	1369.94397	-88.15891	512.62225	1306.24585	75.91765	447.43115	1144.35901	339.06085	471.20947	1046.63831	348.48352	399.98022	1018.15173	282.60953	465.34576	913.02374	358.02621	565.30566	856.21991	316.11935	504.96613	820.90295	334.63348	622.17657	782.05383	325.75781	421.78534	1155.52539	-141.10037	435.99869	1104.51416	-157.93806	439.98157	1051.02759	-66.04768	561.03217	1082.60999	-130.28058	617.60095	1171.89783	-144.94547	643.97754	1128.53748	-92.65102	nan	nan	nan
5958	23.82800	368.03229	1415.72046	104.35349	450.87491	1344.63049	278.93915	394.63406	1369.97534	-88.06211	512.58154	1306.27393	76.22682	446.89893	1144.23438	339.15018	470.70163	1046.51355	348.58041	399.62891	1017.98633	282.54553	464.98117	912.89429	357.99289	565.10553	856.26624	316.24380	504.77182	820.86194	334.60388	622.04755	782.18250	325.91824	420.82852	1155.36182	-141.01465	434.94177	1104.10608	-157.84911	438.62421	1050.65796	-66.10409	559.94977	1080.01721	-130.83432	618.26587	1168.11292	-145.57687	644.00470	1124.46863	-93.63258	nan	nan	nan
